<svg width="25" height="24" viewBox="0 0 25 24" fill="none" xmlns="http://www.w3.org/2000/svg">
<g clip-path="url(#clip0_1046_1477)">
<path d="M4.87187 1.26747C3.95735 1.48378 3.10848 2.16492 2.69108 3.01174C2.34871 3.71128 2.36278 3.52259 2.36278 7.95458V11.9263L2.13767 12.1841C1.49985 12.9158 1.09652 13.8041 0.955819 14.7936C0.9183 15.0421 0.90892 16.188 0.9183 18.3419L0.93237 21.5175L1.11059 21.8672C1.31225 22.2722 1.6124 22.5668 2.02511 22.7647C2.26899 22.8844 2.33934 22.8936 2.80832 22.8936C3.27262 22.8936 3.35235 22.8797 3.59622 22.7693C3.9761 22.5944 4.3513 22.2308 4.52951 21.8626C4.66552 21.5865 4.67959 21.5083 4.69835 21.0158L4.71711 20.4774H12.915H21.1129L21.1317 21.0204C21.1505 21.5083 21.1645 21.5865 21.3005 21.8626C21.4788 22.2308 21.8539 22.5944 22.2338 22.7693C22.4777 22.8797 22.5574 22.8936 23.0217 22.8936C23.4907 22.8936 23.5611 22.8844 23.8049 22.7647C24.2176 22.5668 24.5178 22.2722 24.7195 21.8672L24.8977 21.5175L24.9117 18.3189C24.9211 15.6542 24.9117 15.0421 24.8555 14.6785C24.7007 13.7028 24.2552 12.7824 23.6126 12.092L23.3735 11.8343V7.92696C23.3735 4.1623 23.3688 4.00122 23.2797 3.65145C23.0311 2.68958 22.3886 1.91639 21.4788 1.49759C20.7846 1.17543 21.3662 1.19384 12.84 1.19844C6.2976 1.20304 5.11106 1.21225 4.87187 1.26747ZM20.7049 2.18793C20.8456 2.22935 21.0614 2.31679 21.1927 2.38122C21.4834 2.52389 21.9993 3.03014 22.1635 3.3385C22.4402 3.84014 22.4355 3.79872 22.4355 7.6002C22.4355 9.51935 22.4308 11.0887 22.4214 11.0887C22.4167 11.0887 22.2432 11.0059 22.0368 10.9046C21.8305 10.8034 21.6382 10.7205 21.6054 10.7205C21.5585 10.7205 21.5444 10.5226 21.5444 9.85532C21.5444 8.85202 21.5022 8.57128 21.2818 8.10645C21.0989 7.71066 20.5924 7.186 20.2031 6.9835C19.706 6.72117 19.6309 6.71657 16.9718 6.71657C14.2892 6.71657 14.3032 6.71657 13.7498 7.00191C13.5997 7.08014 13.3512 7.26424 13.1964 7.41611L12.915 7.69225L12.6383 7.42071C12.3429 7.12617 11.963 6.90526 11.5596 6.7902C11.1845 6.68435 6.56023 6.67975 6.13814 6.7856C5.74419 6.88685 5.43466 7.06634 5.06885 7.4023C4.82028 7.63242 4.70773 7.77969 4.56703 8.06963C4.32785 8.56208 4.28564 8.82441 4.28564 9.84611V10.7067L4.09335 10.7666C3.99017 10.8034 3.76506 10.9092 3.60091 11.0013L3.30076 11.1762V7.61861C3.30076 4.48446 3.31014 4.03344 3.3758 3.81253C3.6056 3.05776 4.17777 2.47327 4.94222 2.22014L5.24706 2.11889L12.8494 2.11429C19.7013 2.11429 20.4751 2.1235 20.7049 2.18793ZM11.5784 7.78429C11.8692 7.93157 12.1834 8.25833 12.3194 8.54827C12.4085 8.73696 12.4226 8.86122 12.4367 9.55617L12.4554 10.3478L8.94269 10.3662C7.01515 10.3754 5.38776 10.3984 5.33148 10.4214L5.22361 10.4536V9.72185C5.22361 8.93486 5.2752 8.64492 5.48156 8.33196C5.66446 8.04662 6.0162 7.77969 6.34919 7.67844C6.41484 7.66003 7.56387 7.64622 8.90517 7.65083L11.3439 7.66003L11.5784 7.78429ZM19.706 7.76588C20.0343 7.93617 20.3016 8.2077 20.447 8.52526C20.5783 8.80139 20.583 8.83821 20.5971 9.63441L20.6158 10.4582L20.5033 10.4214C20.4423 10.3984 18.8149 10.3754 16.8874 10.3662L13.3746 10.3478L13.3934 9.55617C13.4075 8.86122 13.4215 8.73696 13.5106 8.54827C13.6935 8.15708 14.0969 7.8073 14.5096 7.67844C14.5752 7.66003 15.7243 7.64622 17.0656 7.65083L19.5043 7.66003L19.706 7.76588ZM20.1374 11.3188C21.202 11.4293 22.1635 11.8895 22.8529 12.6351C23.1765 12.9849 23.3406 13.2242 23.5611 13.6752C23.8894 14.3471 23.9503 14.6555 23.9738 15.7922L23.9925 16.7909L21.5444 16.8047L19.0963 16.8186L18.9603 16.9704C18.7727 17.1729 18.7727 17.3984 18.9603 17.5825L19.0963 17.716H21.5397H23.9832V18.6365V19.5569H12.915H1.8469V18.6365V17.716H8.30956C15.4569 17.716 14.9176 17.739 15.0255 17.4168C15.1005 17.1867 14.9739 16.9336 14.7441 16.8554C14.6221 16.814 13.0182 16.8001 8.20638 16.8001L1.83752 16.7955L1.85628 15.7692C1.87973 14.8258 1.88911 14.7153 2.00635 14.3379C2.35809 13.1874 3.06627 12.3267 4.10742 11.7837C4.54358 11.5536 5.1392 11.3741 5.62225 11.3234C6.19442 11.2636 19.5606 11.2636 20.1374 11.3188ZM3.76975 20.8686C3.76975 21.4438 3.62905 21.7154 3.2351 21.9133C2.9584 22.0513 2.52693 22.0145 2.2643 21.835C1.96883 21.6279 1.87504 21.4116 1.85628 20.9008L1.83752 20.4774H2.80363H3.76975V20.8686ZM23.9738 20.9008C23.955 21.4116 23.8612 21.6279 23.5658 21.835C23.3031 22.0145 22.8716 22.0513 22.5949 21.9133C22.201 21.7154 22.0603 21.4438 22.0603 20.8686V20.4774H23.0264H23.9925L23.9738 20.9008Z" fill="#1C171D"/>
<path d="M16.8217 16.8322C16.6623 16.8552 16.4794 17.0991 16.4794 17.2878C16.4794 17.5179 16.6904 17.7158 16.9343 17.7158C17.286 17.7158 17.4877 17.4167 17.3564 17.1037C17.3189 17.0163 17.2626 16.9288 17.2344 16.9104C17.1406 16.8552 16.9296 16.8138 16.8217 16.8322Z" fill="#1C171D"/>
</g>
<defs>
<clipPath id="clip0_1046_1477">
<rect width="23.5636" height="23.5636" fill="white" transform="translate(0.909058 0.273438)"/>
</clipPath>
</defs>
</svg>
