<svg width="34" height="24" viewBox="0 0 34 24" fill="none" xmlns="http://www.w3.org/2000/svg">
<path d="M16.2498 0.331836C14.2905 0.61721 12.7257 1.94032 12.1274 3.82769C11.9105 4.52815 11.9105 5.84477 12.1274 6.55172C12.7981 8.67258 14.6981 10.0541 16.9533 10.0605C17.8211 10.0605 18.3537 9.9438 19.1426 9.56763C20.1946 9.06822 20.9046 8.36775 21.4438 7.31705C21.8448 6.53227 21.9566 5.96152 21.9237 4.97567C21.8974 4.34006 21.858 4.08063 21.7133 3.66554C21.4569 2.92616 21.069 2.31001 20.497 1.74574C19.6883 0.947987 18.735 0.487494 17.5779 0.331836C16.9993 0.254005 16.8152 0.254005 16.2498 0.331836ZM18.1893 1.55765C19.3727 1.95329 20.3129 2.88076 20.6942 4.03523C20.8981 4.65138 20.9178 5.68263 20.7271 6.22743C20.2472 7.62837 19.2741 8.53638 17.8737 8.8931C16.6048 9.21091 15.2636 8.86716 14.2708 7.95266C13.7514 7.4792 13.4555 7.02519 13.2123 6.34418C12.9887 5.71506 12.9756 4.72921 13.186 4.08712C13.6002 2.80293 14.8296 1.69386 16.1183 1.43442C16.6508 1.33065 17.6962 1.38902 18.1893 1.55765Z" fill="#1C171D"/>
<path d="M26.4736 3.73087C25.1455 4.02922 23.9883 5.07343 23.5741 6.35762C23.4098 6.85054 23.3769 7.90124 23.5084 8.36822C23.6859 9.00383 24.0409 9.60052 24.5209 10.087C25.06 10.6188 25.4216 10.8458 26.0857 11.0663C27.0784 11.3971 28.0778 11.3193 29.0771 10.8393C31.6939 9.56161 31.9371 5.9555 29.5176 4.32108C28.6498 3.73735 27.4663 3.51035 26.4736 3.73087ZM28.1238 4.83994C28.6235 4.98911 28.9654 5.20315 29.3598 5.61175C30.6682 6.97377 30.2211 9.13355 28.4657 9.93779C27.3217 10.4696 25.8424 10.1064 25.0797 9.11409C24.6655 8.58225 24.5406 8.18013 24.534 7.42778C24.534 6.83108 24.5538 6.74677 24.7444 6.33816C25.0863 5.62472 25.7372 5.06694 26.5064 4.82697C26.8812 4.71023 27.703 4.71671 28.1238 4.83994Z" fill="#1C171D"/>
<path d="M6.16426 3.9974C5.17806 4.20494 4.28391 4.80164 3.73163 5.61236C2.69283 7.14301 2.90322 9.12767 4.23131 10.4183C4.91508 11.0864 6.03277 11.5469 6.97952 11.5469C8.61662 11.5469 10.1945 10.3924 10.7008 8.82284C10.9112 8.18723 10.898 7.20138 10.6745 6.56577C10.4378 5.89774 10.1419 5.43724 9.62912 4.96378C8.69551 4.0882 7.40688 3.73148 6.16426 3.9974ZM8.13009 5.23618C8.91905 5.60588 9.40558 6.15717 9.65542 6.9679C10.0499 8.23911 9.40558 9.62059 8.14982 10.2043C7.30168 10.5935 6.16426 10.5091 5.40818 9.99028C5.00712 9.72436 4.58634 9.2509 4.4154 8.86824C3.73163 7.38947 4.48115 5.67722 6.06564 5.12593C6.37465 5.02215 6.57847 4.99621 7.07814 5.01567C7.61727 5.02864 7.76191 5.06107 8.13009 5.23618Z" fill="#1C171D"/>
<path d="M16.3486 10.7488C14.3368 10.9434 12.4104 11.7671 11.0034 13.0383L10.5563 13.4469L9.91857 13.1486C9.14276 12.7854 8.61021 12.6232 7.8344 12.5194C4.75088 12.0914 1.66735 13.9723 0.654854 16.8974C0.385293 17.6757 0.306396 18.3307 0.306396 19.7187C0.306396 20.9964 0.306396 21.0029 0.490487 21.3466C0.621981 21.5996 0.760049 21.7488 0.996737 21.8914L1.31232 22.086L4.64568 22.1055L7.98562 22.1249L8.02507 22.3844C8.08424 22.7605 8.2749 23.0978 8.59049 23.3767C9.14933 23.8761 8.44584 23.8372 17.1376 23.8372C25.8293 23.8372 25.1258 23.8761 25.6846 23.3767C26.0594 23.0459 26.2238 22.6957 26.2632 22.1703L26.2961 21.7358L29.59 21.7163C31.9306 21.7034 32.9365 21.6709 33.0549 21.619C33.3441 21.4958 33.7189 21.1326 33.8438 20.8537C33.949 20.6332 33.9687 20.4127 33.9687 19.3231C33.9687 17.9416 33.8898 17.2865 33.6203 16.5082C32.9365 14.53 31.3454 12.9994 29.3336 12.3703C27.5124 11.806 25.3888 12.059 23.8174 13.0189L23.4953 13.2199L23.0876 12.8762C21.227 11.3196 18.6958 10.5153 16.3486 10.7488ZM18.4919 11.9033C21.7793 12.4611 24.3566 14.9062 25.0338 18.1102C25.1455 18.655 25.1784 19.0701 25.1981 20.3867C25.231 22.1314 25.1981 22.4168 24.9154 22.6308C24.7445 22.767 24.7116 22.767 17.1376 22.767C9.60956 22.767 9.52409 22.767 9.35972 22.6373C9.07701 22.4168 9.05071 22.2092 9.07701 20.4321C9.09674 19.0442 9.12304 18.668 9.24138 18.1102C9.91857 14.9322 12.4761 12.4805 15.724 11.9098C16.4341 11.7865 17.7753 11.7801 18.4919 11.9033ZM28.7024 13.3042C30.6617 13.7972 32.2133 15.3343 32.7195 17.28C32.8313 17.7146 32.851 18 32.851 19.135C32.851 20.0884 32.8313 20.4905 32.7721 20.5489C32.713 20.6073 31.8977 20.6267 29.4914 20.6267H26.2961L26.2566 19.5047C26.1975 17.8832 25.9476 16.8909 25.2507 15.5613C25.0798 15.2305 24.7839 14.7506 24.5932 14.4911L24.2448 14.0177L24.4618 13.8815C25.6189 13.181 27.2954 12.954 28.7024 13.3042ZM8.34065 13.7128C8.8995 13.849 9.77393 14.2187 9.77393 14.3095C9.77393 14.329 9.64901 14.5171 9.50437 14.7376C9.11646 15.2954 8.55761 16.4758 8.36037 17.1568C8.10396 18.0259 7.99877 18.8561 7.99877 19.9911V21.0159H4.78375C2.04211 21.0159 1.56216 21.0029 1.48984 20.9186C1.43067 20.8472 1.41752 20.4451 1.43724 19.349C1.46354 18.0259 1.48326 17.8184 1.61476 17.4162C2.25908 15.4835 3.8107 14.0825 5.79625 13.6545C6.47344 13.5053 7.62401 13.5312 8.34065 13.7128Z" fill="#1C171D"/>
</svg>
